<svg width="170" height="170" viewBox="0 0 170 170" fill="none" xmlns="http://www.w3.org/2000/svg">
<circle cx="85" cy="85" r="85" fill="#F4F7F6"/>
<path d="M116.875 63.75C116.875 72.2038 113.517 80.3113 107.539 86.289C101.561 92.2668 93.4538 95.625 85 95.625C76.5462 95.625 68.4387 92.2668 62.461 86.289C56.4833 80.3113 53.125 72.2038 53.125 63.75C53.125 55.2962 56.4833 47.1887 62.461 41.211C68.4387 35.2333 76.5462 31.875 85 31.875C93.4538 31.875 101.561 35.2333 107.539 41.211C113.517 47.1887 116.875 55.2962 116.875 63.75V63.75Z" fill="black"/>
<path fill-rule="evenodd" clip-rule="evenodd" d="M0 85C0 62.4566 8.95533 40.8365 24.8959 24.8959C40.8365 8.95533 62.4566 0 85 0C107.543 0 129.163 8.95533 145.104 24.8959C161.045 40.8365 170 62.4566 170 85C170 107.543 161.045 129.163 145.104 145.104C129.163 161.045 107.543 170 85 170C62.4566 170 40.8365 161.045 24.8959 145.104C8.95533 129.163 0 107.543 0 85ZM85 10.625C70.9939 10.6257 57.2726 14.5814 45.4155 22.0365C33.5584 29.4917 24.0474 40.1435 17.9771 52.7658C11.9069 65.3881 9.52411 79.468 11.1031 93.3848C12.6821 107.302 18.1587 120.49 26.9025 131.431C34.4463 119.276 51.0531 106.25 85 106.25C118.947 106.25 135.543 119.266 143.098 131.431C151.841 120.49 157.318 107.302 158.897 93.3848C160.476 79.468 158.093 65.3881 152.023 52.7658C145.953 40.1435 136.442 29.4917 124.584 22.0365C112.727 14.5814 99.0061 10.6257 85 10.625Z" fill="black"/>
</svg>
